<svg width="1060" height="908" viewBox="0 0 1060 908" fill="none" xmlns="http://www.w3.org/2000/svg">
<mask id="mask0_0_544" style="mask-type:alpha" maskUnits="userSpaceOnUse" x="0" y="0" width="1060" height="908">
<path fill-rule="evenodd" clip-rule="evenodd" d="M908 0H0V908H908L1059.5 454L908 0Z" fill="black"/>
</mask>
<g mask="url(#mask0_0_544)">
<path fill-rule="evenodd" clip-rule="evenodd" d="M908 0H0V908H908L1059.5 454L908 0Z" fill="black"/>
<rect x="769" y="739.921" width="113.164" height="486.984" transform="rotate(-35 769 739.921)" fill="black"/>
<rect x="772.482" y="740.535" width="108.164" height="481.984" transform="rotate(-35 772.482 740.535)" stroke="white" stroke-opacity="0.2" stroke-width="5"/>
<rect x="592.066" y="765" width="148.372" height="377.704" transform="rotate(5.78419 592.066 765)" fill="black"/>
<rect x="594.301" y="767.739" width="143.372" height="372.704" transform="rotate(5.78419 594.301 767.739)" stroke="white" stroke-opacity="0.2" stroke-width="5"/>
<circle cx="896.3" cy="777.2" r="52.5" fill="#F24E1E"/>
<rect x="761" y="812" width="96" height="96" fill="#A259FF"/>
<path d="M652.098 799.102L760.992 828.801L681.796 907.996L652.098 799.102Z" fill="#0ACF83"/>
<path d="M104.551 174H138.071V164.872H115.622V121.636H104.551V174ZM161.512 174.767C171.228 174.767 177.773 170.037 179.307 162.75L169.233 162.085C168.134 165.077 165.322 166.636 161.691 166.636C156.245 166.636 152.793 163.031 152.793 157.176V157.151H179.537V154.159C179.537 140.812 171.458 134.216 161.077 134.216C149.52 134.216 142.029 142.423 142.029 154.543C142.029 166.994 149.418 174.767 161.512 174.767ZM152.793 150.401C153.023 145.926 156.424 142.347 161.256 142.347C165.986 142.347 169.259 145.722 169.285 150.401H152.793ZM196.26 174.741C202.064 174.741 205.823 172.21 207.74 168.554H208.047V174H218.377V147.511C218.377 138.153 210.451 134.216 201.706 134.216C192.297 134.216 186.11 138.716 184.601 145.875L194.675 146.693C195.417 144.085 197.743 142.168 201.655 142.168C205.363 142.168 207.485 144.034 207.485 147.256V147.409C207.485 149.94 204.8 150.273 197.973 150.938C190.201 151.653 183.22 154.261 183.22 163.031C183.22 170.804 188.769 174.741 196.26 174.741ZM199.38 167.224C196.03 167.224 193.627 165.665 193.627 162.673C193.627 159.605 196.158 158.097 199.993 157.56C202.371 157.227 206.257 156.665 207.561 155.795V159.963C207.561 164.08 204.161 167.224 199.38 167.224ZM225.243 174H236.135V151.781C236.135 146.949 239.663 143.625 244.47 143.625C245.979 143.625 248.05 143.881 249.073 144.213V134.548C248.101 134.318 246.746 134.165 245.646 134.165C241.249 134.165 237.644 136.722 236.212 141.58H235.803V134.727H225.243V174ZM264.012 151.295C264.038 146.233 267.055 143.267 271.452 143.267C275.825 143.267 278.458 146.131 278.432 150.938V174H289.325V148.994C289.325 139.841 283.955 134.216 275.773 134.216C269.944 134.216 265.725 137.08 263.961 141.656H263.501V134.727H253.12V174H264.012V151.295ZM332.294 134.727H324.905V125.318H314.013V134.727H308.644V142.909H314.013V163.364C313.962 171.06 319.203 174.869 327.104 174.537C329.916 174.435 331.911 173.872 333.01 173.514L331.297 165.409C330.76 165.511 329.61 165.767 328.587 165.767C326.414 165.767 324.905 164.949 324.905 161.932V142.909H332.294V134.727ZM349.541 151.295C349.567 146.233 352.661 143.267 357.109 143.267C361.533 143.267 364.141 146.105 364.115 150.938V174H375.007V148.994C375.033 139.79 369.612 134.216 361.43 134.216C355.473 134.216 351.484 137.028 349.695 141.656H349.234V121.636H338.649V174H349.541V151.295ZM399.893 174.767C409.609 174.767 416.154 170.037 417.688 162.75L407.614 162.085C406.515 165.077 403.702 166.636 400.072 166.636C394.626 166.636 391.174 163.031 391.174 157.176V157.151H417.918V154.159C417.918 140.812 409.839 134.216 399.458 134.216C387.901 134.216 380.41 142.423 380.41 154.543C380.41 166.994 387.799 174.767 399.893 174.767ZM391.174 150.401C391.404 145.926 394.805 142.347 399.637 142.347C404.367 142.347 407.64 145.722 407.665 150.401H391.174ZM438.727 174H449.465V167.71H449.951C451.46 170.983 454.758 174.639 461.099 174.639C470.048 174.639 477.028 167.557 477.028 154.415C477.028 140.915 469.741 134.216 461.124 134.216C454.553 134.216 451.409 138.128 449.951 141.324H449.619V121.636H438.727V174ZM449.389 154.364C449.389 147.358 452.355 142.884 457.647 142.884C463.042 142.884 465.906 147.562 465.906 154.364C465.906 161.216 462.991 165.972 457.647 165.972C452.406 165.972 449.389 161.369 449.389 154.364ZM493.911 174.741C499.714 174.741 503.473 172.21 505.391 168.554H505.697V174H516.027V147.511C516.027 138.153 508.101 134.216 499.357 134.216C489.947 134.216 483.76 138.716 482.251 145.875L492.325 146.693C493.067 144.085 495.393 142.168 499.305 142.168C503.013 142.168 505.135 144.034 505.135 147.256V147.409C505.135 149.94 502.45 150.273 495.624 150.938C487.851 151.653 480.871 154.261 480.871 163.031C480.871 170.804 486.419 174.741 493.911 174.741ZM497.03 167.224C493.68 167.224 491.277 165.665 491.277 162.673C491.277 159.605 493.808 158.097 497.643 157.56C500.021 157.227 503.908 156.665 505.212 155.795V159.963C505.212 164.08 501.811 167.224 497.03 167.224ZM555.569 145.926C554.598 138.69 548.768 134.216 538.848 134.216C528.8 134.216 522.177 138.869 522.203 146.438C522.177 152.318 525.885 156.128 533.555 157.662L540.356 159.017C543.782 159.707 545.342 160.96 545.393 162.929C545.342 165.256 542.811 166.918 539.001 166.918C535.115 166.918 532.532 165.256 531.868 162.06L521.155 162.622C522.177 170.139 528.569 174.767 538.976 174.767C549.152 174.767 556.439 169.577 556.464 161.83C556.439 156.153 552.731 152.753 545.112 151.193L538.004 149.761C534.348 148.969 532.993 147.716 533.018 145.824C532.993 143.472 535.652 141.938 539.027 141.938C542.811 141.938 545.061 144.009 545.598 146.54L555.569 145.926ZM561.739 174H572.631V134.727H561.739V174ZM567.211 129.665C570.458 129.665 573.117 127.185 573.117 124.142C573.117 121.125 570.458 118.645 567.211 118.645C563.989 118.645 561.33 121.125 561.33 124.142C561.33 127.185 563.989 129.665 567.211 129.665ZM597.516 174.767C607.974 174.767 614.545 168.631 615.056 159.605H604.778C604.139 163.798 601.377 166.151 597.644 166.151C592.556 166.151 589.258 161.881 589.258 154.364C589.258 146.949 592.582 142.705 597.644 142.705C601.633 142.705 604.19 145.338 604.778 149.25H615.056C614.596 140.173 607.718 134.216 597.465 134.216C585.551 134.216 578.187 142.474 578.187 154.517C578.187 166.457 585.423 174.767 597.516 174.767ZM653.122 145.926C652.151 138.69 646.321 134.216 636.401 134.216C626.352 134.216 619.73 138.869 619.756 146.438C619.73 152.318 623.437 156.128 631.108 157.662L637.909 159.017C641.335 159.707 642.895 160.96 642.946 162.929C642.895 165.256 640.364 166.918 636.554 166.918C632.668 166.918 630.085 165.256 629.42 162.06L618.707 162.622C619.73 170.139 626.122 174.767 636.528 174.767C646.704 174.767 653.991 169.577 654.017 161.83C653.991 156.153 650.284 152.753 642.665 151.193L635.557 149.761C631.901 148.969 630.545 147.716 630.571 145.824C630.545 143.472 633.204 141.938 636.579 141.938C640.364 141.938 642.614 144.009 643.151 146.54L653.122 145.926ZM122.091 270.767C134.006 270.767 141.42 262.611 141.42 250.517C141.42 238.347 134.006 230.216 122.091 230.216C110.176 230.216 102.761 238.347 102.761 250.517C102.761 262.611 110.176 270.767 122.091 270.767ZM122.142 262.33C116.645 262.33 113.832 257.293 113.832 250.44C113.832 243.588 116.645 238.526 122.142 238.526C127.537 238.526 130.349 243.588 130.349 250.44C130.349 257.293 127.537 262.33 122.142 262.33ZM168.038 230.727H160.24V228.094C160.24 225.435 161.314 223.875 164.51 223.875C165.814 223.875 167.143 224.156 168.013 224.438L169.93 216.256C168.575 215.847 165.584 215.182 162.234 215.182C154.845 215.182 149.348 219.349 149.348 227.889V230.727H143.8V238.909H149.348V270H160.24V238.909H168.038V230.727ZM188.393 270H199.464V248.369H220.762V239.241H199.464V226.764H223.063V217.636H188.393V270ZM228.722 270H239.614V230.727H228.722V270ZM234.193 225.665C237.44 225.665 240.099 223.185 240.099 220.142C240.099 217.125 237.44 214.645 234.193 214.645C230.972 214.645 228.312 217.125 228.312 220.142C228.312 223.185 230.972 225.665 234.193 225.665ZM264.448 285.29C275.672 285.29 283.65 280.176 283.65 270.384V230.727H272.834V237.324H272.425C270.968 234.128 267.772 230.216 261.201 230.216C252.584 230.216 245.297 236.915 245.297 250.287C245.297 263.352 252.38 269.438 261.226 269.438C267.491 269.438 270.993 266.293 272.425 263.045H272.885V270.23C272.885 275.369 269.434 277.466 264.704 277.466C259.897 277.466 257.468 275.369 256.573 273.247L246.499 274.602C247.803 280.534 253.863 285.29 264.448 285.29ZM264.678 261.256C259.334 261.256 256.419 257.011 256.419 250.236C256.419 243.562 259.283 238.884 264.678 238.884C269.971 238.884 272.937 243.358 272.937 250.236C272.937 257.165 269.919 261.256 264.678 261.256ZM290.733 270H301.625V246.426C301.625 242.08 304.387 239.19 308.017 239.19C311.597 239.19 314 241.645 314 245.506V270H324.56V246.017C324.56 241.952 326.887 239.19 330.85 239.19C334.327 239.19 336.935 241.364 336.935 245.736V270H347.801V243.588C347.801 235.074 342.739 230.216 335.426 230.216C329.674 230.216 325.199 233.156 323.588 237.656H323.179C321.926 233.105 317.912 230.216 312.517 230.216C307.225 230.216 303.21 233.028 301.574 237.656H301.114V230.727H290.733V270ZM366.02 270.741C371.824 270.741 375.582 268.21 377.5 264.554H377.807V270H388.136V243.511C388.136 234.153 380.21 230.216 371.466 230.216C362.057 230.216 355.869 234.716 354.361 241.875L364.435 242.693C365.176 240.085 367.503 238.168 371.415 238.168C375.122 238.168 377.244 240.034 377.244 243.256V243.409C377.244 245.94 374.56 246.273 367.733 246.938C359.96 247.653 352.98 250.261 352.98 259.031C352.98 266.804 358.528 270.741 366.02 270.741ZM369.139 263.224C365.79 263.224 363.386 261.665 363.386 258.673C363.386 255.605 365.918 254.097 369.753 253.56C372.131 253.227 376.017 252.665 377.321 251.795V255.963C377.321 260.08 373.921 263.224 369.139 263.224Z" fill="white"/>
<path d="M101.352 336.824H107.756V355H110.222V336.824H116.625V334.636H101.352V336.824ZM121.871 345.812C121.871 343.148 123.571 341.636 125.888 341.636C128.096 341.636 129.428 343.028 129.428 345.455V355H131.775V345.295C131.775 341.368 129.687 339.528 126.564 339.528C124.158 339.528 122.786 340.533 122.07 342.114H121.871V334.636H119.525V355H121.871V345.812ZM135.48 355H137.826V339.727H135.48V355ZM136.673 337.182C137.587 337.182 138.343 336.466 138.343 335.591C138.343 334.716 137.587 334 136.673 334C135.758 334 135.002 334.716 135.002 335.591C135.002 336.466 135.758 337.182 136.673 337.182ZM152.354 343.148C151.618 340.98 149.968 339.528 146.945 339.528C143.724 339.528 141.337 341.358 141.337 343.943C141.337 346.051 142.59 347.463 145.394 348.119L147.939 348.716C149.481 349.074 150.207 349.81 150.207 350.864C150.207 352.176 148.814 353.25 146.627 353.25C144.708 353.25 143.505 352.425 143.087 350.784L140.86 351.341C141.407 353.936 143.545 355.318 146.667 355.318C150.216 355.318 152.633 353.379 152.633 350.744C152.633 348.616 151.3 347.274 148.576 346.608L146.309 346.051C144.499 345.604 143.684 344.997 143.684 343.824C143.684 342.511 145.076 341.557 146.945 341.557C148.993 341.557 149.839 342.69 150.246 343.744L152.354 343.148ZM169.506 339.727H166.245V336.068H163.898V339.727H161.591V341.716H163.898V351.261C163.898 353.926 166.046 355.199 168.034 355.199C168.909 355.199 169.466 355.04 169.784 354.92L169.307 352.812C169.108 352.852 168.79 352.932 168.273 352.932C167.239 352.932 166.245 352.614 166.245 350.625V341.716H169.506V339.727ZM182.073 348.756C182.073 351.619 179.885 352.932 178.135 352.932C176.186 352.932 174.794 351.5 174.794 349.273V339.727H172.448V349.432C172.448 353.33 174.516 355.199 177.38 355.199C179.686 355.199 181.198 353.966 181.914 352.415H182.073V355H184.419V339.727H182.073V348.756ZM194.771 339.727H191.51V336.068H189.163V339.727H186.857V341.716H189.163V351.261C189.163 353.926 191.311 355.199 193.3 355.199C194.175 355.199 194.732 355.04 195.05 354.92L194.573 352.812C194.374 352.852 194.056 352.932 193.538 352.932C192.504 352.932 191.51 352.614 191.51 350.625V341.716H194.771V339.727ZM203.754 355.318C207.89 355.318 210.674 352.176 210.674 347.443C210.674 342.67 207.89 339.528 203.754 339.528C199.617 339.528 196.833 342.67 196.833 347.443C196.833 352.176 199.617 355.318 203.754 355.318ZM203.754 353.21C200.612 353.21 199.18 350.506 199.18 347.443C199.18 344.381 200.612 341.636 203.754 341.636C206.896 341.636 208.328 344.381 208.328 347.443C208.328 350.506 206.896 353.21 203.754 353.21ZM213.668 355H216.015V345.335C216.015 343.267 217.646 341.756 219.873 341.756C220.499 341.756 221.146 341.875 221.305 341.915V339.528C221.036 339.509 220.42 339.489 220.072 339.489C218.242 339.489 216.651 340.523 216.094 342.034H215.935V339.727H213.668V355ZM223.498 355H225.845V339.727H223.498V355ZM224.691 337.182C225.606 337.182 226.362 336.466 226.362 335.591C226.362 334.716 225.606 334 224.691 334C223.777 334 223.021 334.716 223.021 335.591C223.021 336.466 223.777 337.182 224.691 337.182ZM234.049 355.358C236.714 355.358 238.106 353.926 238.583 352.932H238.702V355H241.049V344.938C241.049 340.085 237.35 339.528 235.401 339.528C233.094 339.528 230.469 340.324 229.276 343.108L231.504 343.903C232.021 342.79 233.244 341.597 235.481 341.597C237.639 341.597 238.702 342.74 238.702 344.699V344.778C238.702 345.912 237.549 345.812 234.765 346.17C231.931 346.538 228.839 347.165 228.839 350.665C228.839 353.648 231.146 355.358 234.049 355.358ZM234.407 353.25C232.538 353.25 231.185 352.415 231.185 350.784C231.185 348.994 232.816 348.438 234.646 348.199C235.64 348.08 238.305 347.801 238.702 347.324V349.472C238.702 351.381 237.191 353.25 234.407 353.25ZM247.091 334.636H244.744V355H247.091V334.636ZM264.889 339.727H261.468V338.176C261.468 336.665 262.105 335.869 263.656 335.869C264.332 335.869 264.73 336.028 264.968 336.108L265.644 334.08C265.286 333.92 264.571 333.682 263.417 333.682C261.23 333.682 259.122 334.994 259.122 337.619V339.727H256.656V341.716H259.122V355H261.468V341.716H264.889V339.727ZM267.589 355H269.936V339.727H267.589V355ZM268.783 337.182C269.697 337.182 270.453 336.466 270.453 335.591C270.453 334.716 269.697 334 268.783 334C267.868 334 267.112 334.716 267.112 335.591C267.112 336.466 267.868 337.182 268.783 337.182ZM275.993 334.636H273.646V355H275.993V334.636ZM286.106 355.318C289.208 355.318 291.475 353.767 292.191 351.46L289.924 350.824C289.328 352.415 287.945 353.21 286.106 353.21C283.352 353.21 281.453 351.43 281.343 348.159H292.43V347.165C292.43 341.477 289.049 339.528 285.867 339.528C281.731 339.528 278.987 342.79 278.987 347.483C278.987 352.176 281.691 355.318 286.106 355.318ZM281.343 346.131C281.502 343.754 283.183 341.636 285.867 341.636C288.413 341.636 290.043 343.545 290.043 346.131H281.343ZM306.159 355H308.465L311.806 343.267H312.045L315.386 355H317.693L322.346 339.727H319.88L316.579 351.381H316.42L313.198 339.727H310.693L307.431 351.42H307.272L303.971 339.727H301.505L306.159 355ZM324.86 355H327.207V339.727H324.86V355ZM326.054 337.182C326.968 337.182 327.724 336.466 327.724 335.591C327.724 334.716 326.968 334 326.054 334C325.139 334 324.383 334.716 324.383 335.591C324.383 336.466 325.139 337.182 326.054 337.182ZM333.263 334.636H330.917V355H333.263V334.636ZM339.32 334.636H336.973V355H339.32V334.636ZM353.777 355H356.084L359.425 343.267H359.664L363.004 355H365.311L369.965 339.727H367.499L364.198 351.381H364.039L360.817 339.727H358.311L355.05 351.42H354.891L351.59 339.727H349.124L353.777 355ZM376.973 355.358C379.638 355.358 381.03 353.926 381.507 352.932H381.627V355H383.973V344.938C383.973 340.085 380.274 339.528 378.326 339.528C376.019 339.528 373.394 340.324 372.201 343.108L374.428 343.903C374.945 342.79 376.168 341.597 378.405 341.597C380.563 341.597 381.627 342.74 381.627 344.699V344.778C381.627 345.912 380.473 345.812 377.689 346.17C374.855 346.538 371.763 347.165 371.763 350.665C371.763 353.648 374.07 355.358 376.973 355.358ZM377.331 353.25C375.462 353.25 374.11 352.415 374.11 350.784C374.11 348.994 375.74 348.438 377.57 348.199C378.564 348.08 381.229 347.801 381.627 347.324V349.472C381.627 351.381 380.115 353.25 377.331 353.25ZM390.015 334.636H387.668V355H390.015V334.636ZM393.725 355H396.071V349.283L397.712 347.761L403.429 355H406.412L399.482 346.25L405.935 339.727H403.032L396.35 346.528H396.071V334.636H393.725V355ZM417.166 360.688C419.284 360.688 420.785 359.564 421.66 357.227L428.163 339.767L425.598 339.727L421.382 351.898H421.223L417.007 339.727H414.461L420.109 355.08L419.671 356.273C418.836 358.56 417.762 358.778 416.052 358.341L415.455 360.409C415.694 360.528 416.37 360.688 417.166 360.688ZM436.337 355.318C440.474 355.318 443.258 352.176 443.258 347.443C443.258 342.67 440.474 339.528 436.337 339.528C432.201 339.528 429.417 342.67 429.417 347.443C429.417 352.176 432.201 355.318 436.337 355.318ZM436.337 353.21C433.195 353.21 431.763 350.506 431.763 347.443C431.763 344.381 433.195 341.636 436.337 341.636C439.479 341.636 440.911 344.381 440.911 347.443C440.911 350.506 439.479 353.21 436.337 353.21ZM455.877 348.756C455.877 351.619 453.689 352.932 451.939 352.932C449.99 352.932 448.598 351.5 448.598 349.273V339.727H446.252V349.432C446.252 353.33 448.32 355.199 451.184 355.199C453.49 355.199 455.002 353.966 455.718 352.415H455.877V355H458.223V339.727H455.877V348.756ZM475.862 339.727H472.601V336.068H470.254V339.727H467.948V341.716H470.254V351.261C470.254 353.926 472.402 355.199 474.391 355.199C475.266 355.199 475.823 355.04 476.141 354.92L475.663 352.812C475.465 352.852 475.146 352.932 474.629 352.932C473.595 352.932 472.601 352.614 472.601 350.625V341.716H475.862V339.727ZM481.479 345.812C481.479 343.148 483.179 341.636 485.496 341.636C487.703 341.636 489.036 343.028 489.036 345.455V355H491.382V345.295C491.382 341.368 489.294 339.528 486.172 339.528C483.766 339.528 482.394 340.533 481.678 342.114H481.479V334.636H479.132V355H481.479V345.812ZM495.087 355H497.434V345.335C497.434 343.267 499.065 341.756 501.292 341.756C501.918 341.756 502.565 341.875 502.724 341.915V339.528C502.455 339.509 501.839 339.489 501.491 339.489C499.661 339.489 498.07 340.523 497.513 342.034H497.354V339.727H495.087V355ZM510.657 355.318C514.793 355.318 517.577 352.176 517.577 347.443C517.577 342.67 514.793 339.528 510.657 339.528C506.521 339.528 503.736 342.67 503.736 347.443C503.736 352.176 506.521 355.318 510.657 355.318ZM510.657 353.21C507.515 353.21 506.083 350.506 506.083 347.443C506.083 344.381 507.515 341.636 510.657 341.636C513.799 341.636 515.231 344.381 515.231 347.443C515.231 350.506 513.799 353.21 510.657 353.21ZM530.196 348.756C530.196 351.619 528.009 352.932 526.259 352.932C524.31 352.932 522.918 351.5 522.918 349.273V339.727H520.571V349.432C520.571 353.33 522.64 355.199 525.503 355.199C527.81 355.199 529.321 353.966 530.037 352.415H530.196V355H532.543V339.727H530.196V348.756ZM542.418 361.045C546.077 361.045 549.02 359.375 549.02 355.438V339.727H546.753V342.153H546.514C545.997 341.358 545.043 339.528 542.06 339.528C538.202 339.528 535.537 342.591 535.537 347.284C535.537 352.057 538.321 354.761 542.02 354.761C545.003 354.761 545.957 353.011 546.475 352.176H546.673V355.278C546.673 357.824 544.884 358.977 542.418 358.977C539.644 358.977 538.669 357.516 538.043 356.67L536.173 357.983C537.128 359.584 539.007 361.045 542.418 361.045ZM542.338 352.653C539.395 352.653 537.884 350.426 537.884 347.244C537.884 344.142 539.355 341.636 542.338 341.636C545.202 341.636 546.713 343.943 546.713 347.244C546.713 350.625 545.162 352.653 542.338 352.653ZM555.074 345.812C555.074 343.148 556.774 341.636 559.091 341.636C561.298 341.636 562.631 343.028 562.631 345.455V355H564.977V345.295C564.977 341.368 562.889 339.528 559.767 339.528C557.361 339.528 555.989 340.533 555.273 342.114H555.074V334.636H552.727V355H555.074V345.812ZM582.611 339.727H579.35V336.068H577.004V339.727H574.697V341.716H577.004V351.261C577.004 353.926 579.151 355.199 581.14 355.199C582.015 355.199 582.572 355.04 582.89 354.92L582.413 352.812C582.214 352.852 581.896 352.932 581.379 352.932C580.344 352.932 579.35 352.614 579.35 350.625V341.716H582.611V339.727ZM588.228 345.812C588.228 343.148 589.928 341.636 592.245 341.636C594.452 341.636 595.785 343.028 595.785 345.455V355H598.131V345.295C598.131 341.368 596.043 339.528 592.921 339.528C590.515 339.528 589.143 340.533 588.427 342.114H588.228V334.636H585.881V355H588.228V345.812ZM608.24 355.318C611.342 355.318 613.609 353.767 614.325 351.46L612.058 350.824C611.461 352.415 610.079 353.21 608.24 353.21C605.486 353.21 603.586 351.43 603.477 348.159H614.564V347.165C614.564 341.477 611.183 339.528 608.001 339.528C603.865 339.528 601.12 342.79 601.12 347.483C601.12 352.176 603.825 355.318 608.24 355.318ZM603.477 346.131C603.636 343.754 605.317 341.636 608.001 341.636C610.547 341.636 612.177 343.545 612.177 346.131H603.477ZM625.15 355H627.417V352.653H627.696C628.213 353.489 629.207 355.318 632.15 355.318C635.969 355.318 638.633 352.256 638.633 347.403C638.633 342.591 635.969 339.528 632.111 339.528C629.128 339.528 628.213 341.358 627.696 342.153H627.497V334.636H625.15V355ZM627.457 347.364C627.457 343.943 628.969 341.636 631.832 341.636C634.815 341.636 636.287 344.142 636.287 347.364C636.287 350.625 634.775 353.21 631.832 353.21C629.008 353.21 627.457 350.824 627.457 347.364ZM646.129 355.358C648.794 355.358 650.186 353.926 650.663 352.932H650.783V355H653.129V344.938C653.129 340.085 649.43 339.528 647.482 339.528C645.175 339.528 642.55 340.324 641.357 343.108L643.584 343.903C644.101 342.79 645.324 341.597 647.561 341.597C649.719 341.597 650.783 342.74 650.783 344.699V344.778C650.783 345.912 649.629 345.812 646.845 346.17C644.011 346.538 640.919 347.165 640.919 350.665C640.919 353.648 643.226 355.358 646.129 355.358ZM646.487 353.25C644.618 353.25 643.266 352.415 643.266 350.784C643.266 348.994 644.896 348.438 646.726 348.199C647.72 348.08 650.385 347.801 650.783 347.324V349.472C650.783 351.381 649.271 353.25 646.487 353.25ZM667.642 343.148C666.907 340.98 665.256 339.528 662.233 339.528C659.012 339.528 656.625 341.358 656.625 343.943C656.625 346.051 657.878 347.463 660.682 348.119L663.228 348.716C664.769 349.074 665.495 349.81 665.495 350.864C665.495 352.176 664.103 353.25 661.915 353.25C659.996 353.25 658.793 352.425 658.375 350.784L656.148 351.341C656.695 353.936 658.833 355.318 661.955 355.318C665.505 355.318 667.921 353.379 667.921 350.744C667.921 348.616 666.588 347.274 663.864 346.608L661.597 346.051C659.787 345.604 658.972 344.997 658.972 343.824C658.972 342.511 660.364 341.557 662.233 341.557C664.282 341.557 665.127 342.69 665.534 343.744L667.642 343.148ZM670.865 355H673.212V339.727H670.865V355ZM672.058 337.182C672.973 337.182 673.729 336.466 673.729 335.591C673.729 334.716 672.973 334 672.058 334C671.144 334 670.388 334.716 670.388 335.591C670.388 336.466 671.144 337.182 672.058 337.182ZM683.126 355.318C686.507 355.318 688.734 353.25 689.132 350.545H686.785C686.348 352.216 684.956 353.21 683.126 353.21C680.342 353.21 678.552 350.903 678.552 347.364C678.552 343.903 680.382 341.636 683.126 341.636C685.194 341.636 686.427 342.909 686.785 344.301H689.132C688.734 341.438 686.308 339.528 683.086 339.528C678.95 339.528 676.206 342.79 676.206 347.443C676.206 352.017 678.831 355.318 683.126 355.318ZM702.792 343.148C702.057 340.98 700.406 339.528 697.383 339.528C694.162 339.528 691.775 341.358 691.775 343.943C691.775 346.051 693.028 347.463 695.832 348.119L698.378 348.716C699.919 349.074 700.645 349.81 700.645 350.864C700.645 352.176 699.253 353.25 697.065 353.25C695.146 353.25 693.943 352.425 693.525 350.784L691.298 351.341C691.845 353.936 693.983 355.318 697.105 355.318C700.655 355.318 703.071 353.379 703.071 350.744C703.071 348.616 701.738 347.274 699.014 346.608L696.747 346.051C694.937 345.604 694.122 344.997 694.122 343.824C694.122 342.511 695.514 341.557 697.383 341.557C699.432 341.557 700.277 342.69 700.684 343.744L702.792 343.148ZM719.507 355.318C723.643 355.318 726.427 352.176 726.427 347.443C726.427 342.67 723.643 339.528 719.507 339.528C715.37 339.528 712.586 342.67 712.586 347.443C712.586 352.176 715.37 355.318 719.507 355.318ZM719.507 353.21C716.365 353.21 714.933 350.506 714.933 347.443C714.933 344.381 716.365 341.636 719.507 341.636C722.649 341.636 724.081 344.381 724.081 347.443C724.081 350.506 722.649 353.21 719.507 353.21ZM736.222 339.727H732.802V338.176C732.802 336.665 733.438 335.869 734.989 335.869C735.666 335.869 736.063 336.028 736.302 336.108L736.978 334.08C736.62 333.92 735.904 333.682 734.751 333.682C732.563 333.682 730.455 334.994 730.455 337.619V339.727H727.989V341.716H730.455V355H732.802V341.716H736.222V339.727ZM112.966 385.148C112.23 382.98 110.58 381.528 107.557 381.528C104.335 381.528 101.949 383.358 101.949 385.943C101.949 388.051 103.202 389.463 106.006 390.119L108.551 390.716C110.092 391.074 110.818 391.81 110.818 392.864C110.818 394.176 109.426 395.25 107.239 395.25C105.32 395.25 104.116 394.425 103.699 392.784L101.472 393.341C102.018 395.936 104.156 397.318 107.278 397.318C110.828 397.318 113.244 395.379 113.244 392.744C113.244 390.616 111.912 389.274 109.188 388.608L106.92 388.051C105.111 387.604 104.295 386.997 104.295 385.824C104.295 384.511 105.688 383.557 107.557 383.557C109.605 383.557 110.45 384.69 110.858 385.744L112.966 385.148ZM122.831 381.727H119.569V378.068H117.223V381.727H114.916V383.716H117.223V393.261C117.223 395.926 119.37 397.199 121.359 397.199C122.234 397.199 122.791 397.04 123.109 396.92L122.632 394.812C122.433 394.852 122.115 394.932 121.598 394.932C120.564 394.932 119.569 394.614 119.569 392.625V383.716H122.831V381.727ZM130.267 397.358C132.932 397.358 134.324 395.926 134.801 394.932H134.92V397H137.267V386.938C137.267 382.085 133.568 381.528 131.619 381.528C129.312 381.528 126.687 382.324 125.494 385.108L127.721 385.903C128.238 384.79 129.461 383.597 131.699 383.597C133.856 383.597 134.92 384.74 134.92 386.699V386.778C134.92 387.912 133.767 387.812 130.983 388.17C128.149 388.538 125.057 389.165 125.057 392.665C125.057 395.648 127.363 397.358 130.267 397.358ZM130.625 395.25C128.755 395.25 127.403 394.415 127.403 392.784C127.403 390.994 129.034 390.438 130.863 390.199C131.858 390.08 134.523 389.801 134.92 389.324V391.472C134.92 393.381 133.409 395.25 130.625 395.25ZM140.962 397H143.308V387.335C143.308 385.267 144.939 383.756 147.166 383.756C147.793 383.756 148.439 383.875 148.598 383.915V381.528C148.33 381.509 147.713 381.489 147.365 381.489C145.536 381.489 143.945 382.523 143.388 384.034H143.229V381.727H140.962V397ZM158.391 381.727H155.13V378.068H152.783V381.727H150.476V383.716H152.783V393.261C152.783 395.926 154.931 397.199 156.919 397.199C157.794 397.199 158.351 397.04 158.669 396.92L158.192 394.812C157.993 394.852 157.675 394.932 157.158 394.932C156.124 394.932 155.13 394.614 155.13 392.625V383.716H158.391V381.727ZM161.333 397H163.679V381.727H161.333V397ZM162.526 379.182C163.441 379.182 164.196 378.466 164.196 377.591C164.196 376.716 163.441 376 162.526 376C161.611 376 160.855 376.716 160.855 377.591C160.855 378.466 161.611 379.182 162.526 379.182ZM169.736 387.812C169.736 385.148 171.386 383.636 173.634 383.636C175.811 383.636 177.134 385.058 177.134 387.455V397H179.48V387.295C179.48 383.398 177.402 381.528 174.31 381.528C172.003 381.528 170.571 382.562 169.855 384.114H169.656V381.727H167.389V397H169.736V387.812ZM189.345 403.045C193.004 403.045 195.947 401.375 195.947 397.438V381.727H193.68V384.153H193.442C192.924 383.358 191.97 381.528 188.987 381.528C185.129 381.528 182.464 384.591 182.464 389.284C182.464 394.057 185.248 396.761 188.947 396.761C191.93 396.761 192.885 395.011 193.402 394.176H193.601V397.278C193.601 399.824 191.811 400.977 189.345 400.977C186.571 400.977 185.596 399.516 184.97 398.67L183.101 399.983C184.055 401.584 185.934 403.045 189.345 403.045ZM189.265 394.653C186.322 394.653 184.811 392.426 184.811 389.244C184.811 386.142 186.282 383.636 189.265 383.636C192.129 383.636 193.64 385.943 193.64 389.244C193.64 392.625 192.089 394.653 189.265 394.653ZM208.453 402.688C210.571 402.688 212.072 401.564 212.947 399.227L219.45 381.767L216.885 381.727L212.669 393.898H212.51L208.294 381.727H205.748L211.396 397.08L210.959 398.273C210.123 400.56 209.05 400.778 207.339 400.341L206.743 402.409C206.981 402.528 207.658 402.688 208.453 402.688ZM227.625 397.318C231.761 397.318 234.545 394.176 234.545 389.443C234.545 384.67 231.761 381.528 227.625 381.528C223.488 381.528 220.704 384.67 220.704 389.443C220.704 394.176 223.488 397.318 227.625 397.318ZM227.625 395.21C224.483 395.21 223.051 392.506 223.051 389.443C223.051 386.381 224.483 383.636 227.625 383.636C230.767 383.636 232.198 386.381 232.198 389.443C232.198 392.506 230.767 395.21 227.625 395.21ZM247.164 390.756C247.164 393.619 244.977 394.932 243.227 394.932C241.278 394.932 239.886 393.5 239.886 391.273V381.727H237.539V391.432C237.539 395.33 239.607 397.199 242.471 397.199C244.778 397.199 246.289 395.966 247.005 394.415H247.164V397H249.511V381.727H247.164V390.756ZM253.221 397H255.567V387.335C255.567 385.267 257.198 383.756 259.425 383.756C260.052 383.756 260.698 383.875 260.857 383.915V381.528C260.589 381.509 259.972 381.489 259.624 381.489C257.794 381.489 256.204 382.523 255.647 384.034H255.488V381.727H253.221V397ZM276.105 397.318C279.048 397.318 280.042 395.489 280.559 394.653H280.838V397H283.105V376.636H280.758V384.153H280.559C280.042 383.358 279.127 381.528 276.144 381.528C272.286 381.528 269.622 384.591 269.622 389.403C269.622 394.256 272.286 397.318 276.105 397.318ZM276.423 395.21C273.48 395.21 271.968 392.625 271.968 389.364C271.968 386.142 273.44 383.636 276.423 383.636C279.286 383.636 280.798 385.943 280.798 389.364C280.798 392.824 279.247 395.21 276.423 395.21ZM293.544 397.318C296.646 397.318 298.913 395.767 299.629 393.46L297.362 392.824C296.765 394.415 295.383 395.21 293.544 395.21C290.789 395.21 288.89 393.43 288.781 390.159H299.867V389.165C299.867 383.477 296.487 381.528 293.305 381.528C289.169 381.528 286.424 384.79 286.424 389.483C286.424 394.176 289.129 397.318 293.544 397.318ZM288.781 388.131C288.94 385.754 290.62 383.636 293.305 383.636C295.85 383.636 297.481 385.545 297.481 388.131H288.781ZM313.667 385.148C312.931 382.98 311.281 381.528 308.258 381.528C305.037 381.528 302.65 383.358 302.65 385.943C302.65 388.051 303.903 389.463 306.707 390.119L309.253 390.716C310.794 391.074 311.52 391.81 311.52 392.864C311.52 394.176 310.128 395.25 307.94 395.25C306.021 395.25 304.818 394.425 304.4 392.784L302.173 393.341C302.72 395.936 304.858 397.318 307.98 397.318C311.529 397.318 313.946 395.379 313.946 392.744C313.946 390.616 312.613 389.274 309.889 388.608L307.622 388.051C305.812 387.604 304.997 386.997 304.997 385.824C304.997 384.511 306.389 383.557 308.258 383.557C310.306 383.557 311.152 384.69 311.559 385.744L313.667 385.148ZM316.89 397H319.237V381.727H316.89V397ZM318.083 379.182C318.998 379.182 319.754 378.466 319.754 377.591C319.754 376.716 318.998 376 318.083 376C317.168 376 316.413 376.716 316.413 377.591C316.413 378.466 317.168 379.182 318.083 379.182ZM329.111 403.045C332.77 403.045 335.714 401.375 335.714 397.438V381.727H333.447V384.153H333.208C332.691 383.358 331.736 381.528 328.753 381.528C324.895 381.528 322.231 384.591 322.231 389.284C322.231 394.057 325.015 396.761 328.714 396.761C331.697 396.761 332.651 395.011 333.168 394.176H333.367V397.278C333.367 399.824 331.577 400.977 329.111 400.977C326.337 400.977 325.363 399.516 324.736 398.67L322.867 399.983C323.822 401.584 325.701 403.045 329.111 403.045ZM329.032 394.653C326.089 394.653 324.577 392.426 324.577 389.244C324.577 386.142 326.049 383.636 329.032 383.636C331.895 383.636 333.407 385.943 333.407 389.244C333.407 392.625 331.856 394.653 329.032 394.653ZM341.768 387.812C341.768 385.148 343.418 383.636 345.665 383.636C347.843 383.636 349.165 385.058 349.165 387.455V397H351.512V387.295C351.512 383.398 349.434 381.528 346.341 381.528C344.035 381.528 342.603 382.562 341.887 384.114H341.688V381.727H339.421V397H341.768V387.812ZM362.499 397H364.846V381.727H362.499V397ZM363.692 379.182C364.607 379.182 365.363 378.466 365.363 377.591C365.363 376.716 364.607 376 363.692 376C362.777 376 362.022 376.716 362.022 377.591C362.022 378.466 362.777 379.182 363.692 379.182ZM370.902 387.812C370.902 385.148 372.553 383.636 374.8 383.636C376.977 383.636 378.3 385.058 378.3 387.455V397H380.646V387.295C380.646 383.398 378.568 381.528 375.476 381.528C373.169 381.528 371.737 382.562 371.021 384.114H370.823V381.727H368.555V397H370.902V387.812ZM391.952 397H394.417V387.892H403.247V385.705H394.417V378.824H404.162V376.636H391.952V397ZM407.479 397H409.826V381.727H407.479V397ZM408.672 379.182C409.587 379.182 410.343 378.466 410.343 377.591C410.343 376.716 409.587 376 408.672 376C407.757 376 407.002 376.716 407.002 377.591C407.002 378.466 407.757 379.182 408.672 379.182ZM419.7 403.045C423.359 403.045 426.303 401.375 426.303 397.438V381.727H424.036V384.153H423.797C423.28 383.358 422.325 381.528 419.342 381.528C415.484 381.528 412.82 384.591 412.82 389.284C412.82 394.057 415.604 396.761 419.303 396.761C422.286 396.761 423.24 395.011 423.757 394.176H423.956V397.278C423.956 399.824 422.166 400.977 419.7 400.977C416.926 400.977 415.952 399.516 415.325 398.67L413.456 399.983C414.411 401.584 416.29 403.045 419.7 403.045ZM419.621 394.653C416.678 394.653 415.166 392.426 415.166 389.244C415.166 386.142 416.638 383.636 419.621 383.636C422.484 383.636 423.996 385.943 423.996 389.244C423.996 392.625 422.445 394.653 419.621 394.653ZM430.01 397H432.357V387.455C432.357 385.217 433.987 383.636 435.817 383.636C437.597 383.636 438.84 384.8 438.84 386.54V397H441.226V387.057C441.226 385.088 442.459 383.636 444.607 383.636C446.277 383.636 447.709 384.521 447.709 386.778V397H450.055V386.778C450.055 383.189 448.126 381.528 445.402 381.528C443.215 381.528 441.614 382.533 440.828 384.114H440.669C439.913 382.483 438.581 381.528 436.573 381.528C434.584 381.528 433.112 382.483 432.476 384.114H432.277V381.727H430.01V397ZM458.252 397.358C460.917 397.358 462.309 395.926 462.786 394.932H462.906V397H465.252V386.938C465.252 382.085 461.553 381.528 459.605 381.528C457.298 381.528 454.673 382.324 453.48 385.108L455.707 385.903C456.224 384.79 457.447 383.597 459.684 383.597C461.842 383.597 462.906 384.74 462.906 386.699V386.778C462.906 387.912 461.752 387.812 458.968 388.17C456.134 388.538 453.042 389.165 453.042 392.665C453.042 395.648 455.349 397.358 458.252 397.358ZM458.61 395.25C456.741 395.25 455.389 394.415 455.389 392.784C455.389 390.994 457.019 390.438 458.849 390.199C459.843 390.08 462.508 389.801 462.906 389.324V391.472C462.906 393.381 461.394 395.25 458.61 395.25ZM470.658 397.159C471.642 397.159 472.447 396.354 472.447 395.369C472.447 394.385 471.642 393.58 470.658 393.58C469.673 393.58 468.868 394.385 468.868 395.369C468.868 396.354 469.673 397.159 470.658 397.159ZM483.675 397H486.141V387.892H494.971V385.705H486.141V378.824H495.886V376.636H483.675V397ZM504.286 397.318C508.423 397.318 511.207 394.176 511.207 389.443C511.207 384.67 508.423 381.528 504.286 381.528C500.15 381.528 497.366 384.67 497.366 389.443C497.366 394.176 500.15 397.318 504.286 397.318ZM504.286 395.21C501.144 395.21 499.712 392.506 499.712 389.443C499.712 386.381 501.144 383.636 504.286 383.636C507.428 383.636 508.86 386.381 508.86 389.443C508.86 392.506 507.428 395.21 504.286 395.21ZM514.201 397H516.547V387.335C516.547 385.267 518.178 383.756 520.405 383.756C521.032 383.756 521.678 383.875 521.837 383.915V381.528C521.569 381.509 520.952 381.489 520.604 381.489C518.775 381.489 517.184 382.523 516.627 384.034H516.468V381.727H514.201V397ZM531.318 397H533.664V387.455C533.664 385.217 535.295 383.636 537.125 383.636C538.904 383.636 540.147 384.8 540.147 386.54V397H542.534V387.057C542.534 385.088 543.767 383.636 545.914 383.636C547.585 383.636 549.017 384.521 549.017 386.778V397H551.363V386.778C551.363 383.189 549.434 381.528 546.71 381.528C544.522 381.528 542.921 382.533 542.136 384.114H541.977C541.221 382.483 539.889 381.528 537.88 381.528C535.892 381.528 534.42 382.483 533.784 384.114H533.585V381.727H531.318V397ZM561.27 397.318C565.407 397.318 568.191 394.176 568.191 389.443C568.191 384.67 565.407 381.528 561.27 381.528C557.134 381.528 554.35 384.67 554.35 389.443C554.35 394.176 557.134 397.318 561.27 397.318ZM561.27 395.21C558.128 395.21 556.696 392.506 556.696 389.443C556.696 386.381 558.128 383.636 561.27 383.636C564.412 383.636 565.844 386.381 565.844 389.443C565.844 392.506 564.412 395.21 561.27 395.21ZM571.185 397H573.531V387.335C573.531 385.267 575.162 383.756 577.389 383.756C578.016 383.756 578.662 383.875 578.821 383.915V381.528C578.553 381.509 577.936 381.489 577.588 381.489C575.759 381.489 574.168 382.523 573.611 384.034H573.452V381.727H571.185V397ZM586.953 397.318C590.056 397.318 592.323 395.767 593.038 393.46L590.771 392.824C590.175 394.415 588.793 395.21 586.953 395.21C584.199 395.21 582.3 393.43 582.19 390.159H593.277V389.165C593.277 383.477 589.896 381.528 586.715 381.528C582.578 381.528 579.834 384.79 579.834 389.483C579.834 394.176 582.538 397.318 586.953 397.318ZM582.19 388.131C582.35 385.754 584.03 383.636 586.715 383.636C589.26 383.636 590.891 385.545 590.891 388.131H582.19ZM610.188 381.727H606.926V378.068H604.58V381.727H602.273V383.716H604.58V393.261C604.58 395.926 606.728 397.199 608.716 397.199C609.591 397.199 610.148 397.04 610.466 396.92L609.989 394.812C609.79 394.852 609.472 394.932 608.955 394.932C607.921 394.932 606.926 394.614 606.926 392.625V383.716H610.188V381.727ZM622.755 390.756C622.755 393.619 620.567 394.932 618.817 394.932C616.868 394.932 615.476 393.5 615.476 391.273V381.727H613.13V391.432C613.13 395.33 615.198 397.199 618.061 397.199C620.368 397.199 621.88 395.966 622.595 394.415H622.755V397H625.101V381.727H622.755V390.756ZM635.453 381.727H632.192V378.068H629.845V381.727H627.538V383.716H629.845V393.261C629.845 395.926 631.993 397.199 633.982 397.199C634.857 397.199 635.413 397.04 635.732 396.92L635.254 394.812C635.055 394.852 634.737 394.932 634.22 394.932C633.186 394.932 632.192 394.614 632.192 392.625V383.716H635.453V381.727ZM644.435 397.318C648.572 397.318 651.356 394.176 651.356 389.443C651.356 384.67 648.572 381.528 644.435 381.528C640.299 381.528 637.515 384.67 637.515 389.443C637.515 394.176 640.299 397.318 644.435 397.318ZM644.435 395.21C641.293 395.21 639.862 392.506 639.862 389.443C639.862 386.381 641.293 383.636 644.435 383.636C647.578 383.636 649.009 386.381 649.009 389.443C649.009 392.506 647.578 395.21 644.435 395.21ZM654.35 397H656.697V387.335C656.697 385.267 658.327 383.756 660.554 383.756C661.181 383.756 661.827 383.875 661.986 383.915V381.528C661.718 381.509 661.101 381.489 660.753 381.489C658.924 381.489 657.333 382.523 656.776 384.034H656.617V381.727H654.35V397ZM664.18 397H666.526V381.727H664.18V397ZM665.373 379.182C666.288 379.182 667.044 378.466 667.044 377.591C667.044 376.716 666.288 376 665.373 376C664.458 376 663.703 376.716 663.703 377.591C663.703 378.466 664.458 379.182 665.373 379.182ZM674.731 397.358C677.396 397.358 678.788 395.926 679.265 394.932H679.384V397H681.731V386.938C681.731 382.085 678.032 381.528 676.083 381.528C673.776 381.528 671.151 382.324 669.958 385.108L672.185 385.903C672.702 384.79 673.925 383.597 676.163 383.597C678.32 383.597 679.384 384.74 679.384 386.699V386.778C679.384 387.912 678.231 387.812 675.447 388.17C672.613 388.538 669.521 389.165 669.521 392.665C669.521 395.648 671.827 397.358 674.731 397.358ZM675.089 395.25C673.219 395.25 671.867 394.415 671.867 392.784C671.867 390.994 673.498 390.438 675.327 390.199C676.322 390.08 678.986 389.801 679.384 389.324V391.472C679.384 393.381 677.873 395.25 675.089 395.25ZM687.772 376.636H685.426V397H687.772V376.636ZM704.974 397.318C708.355 397.318 710.582 395.25 710.98 392.545H708.633C708.195 394.216 706.803 395.21 704.974 395.21C702.19 395.21 700.4 392.903 700.4 389.364C700.4 385.903 702.23 383.636 704.974 383.636C707.042 383.636 708.275 384.909 708.633 386.301H710.98C710.582 383.438 708.156 381.528 704.934 381.528C700.798 381.528 698.053 384.79 698.053 389.443C698.053 394.017 700.678 397.318 704.974 397.318ZM720.026 397.318C724.163 397.318 726.947 394.176 726.947 389.443C726.947 384.67 724.163 381.528 720.026 381.528C715.89 381.528 713.106 384.67 713.106 389.443C713.106 394.176 715.89 397.318 720.026 397.318ZM720.026 395.21C716.884 395.21 715.453 392.506 715.453 389.443C715.453 386.381 716.884 383.636 720.026 383.636C723.169 383.636 724.6 386.381 724.6 389.443C724.6 392.506 723.169 395.21 720.026 395.21ZM732.288 387.812C732.288 385.148 733.938 383.636 736.185 383.636C738.363 383.636 739.685 385.058 739.685 387.455V397H742.032V387.295C742.032 383.398 739.954 381.528 736.861 381.528C734.555 381.528 733.123 382.562 732.407 384.114H732.208V381.727H729.941V397H732.288V387.812ZM752.374 381.727H749.113V378.068H746.766V381.727H744.459V383.716H746.766V393.261C746.766 395.926 748.914 397.199 750.902 397.199C751.777 397.199 752.334 397.04 752.652 396.92L752.175 394.812C751.976 394.852 751.658 394.932 751.141 394.932C750.107 394.932 749.113 394.614 749.113 392.625V383.716H752.374V381.727ZM761.555 397.318C764.657 397.318 766.924 395.767 767.64 393.46L765.373 392.824C764.777 394.415 763.395 395.21 761.555 395.21C758.801 395.21 756.902 393.43 756.792 390.159H767.879V389.165C767.879 383.477 764.498 381.528 761.316 381.528C757.18 381.528 754.436 384.79 754.436 389.483C754.436 394.176 757.14 397.318 761.555 397.318ZM756.792 388.131C756.951 385.754 758.632 383.636 761.316 383.636C763.862 383.636 765.493 385.545 765.493 388.131H756.792ZM773.207 387.812C773.207 385.148 774.858 383.636 777.105 383.636C779.282 383.636 780.605 385.058 780.605 387.455V397H782.951V387.295C782.951 383.398 780.873 381.528 777.781 381.528C775.474 381.528 774.042 382.562 773.326 384.114H773.128V381.727H770.861V397H773.207V387.812ZM793.293 381.727H790.032V378.068H787.686V381.727H785.379V383.716H787.686V393.261C787.686 395.926 789.833 397.199 791.822 397.199C792.697 397.199 793.254 397.04 793.572 396.92L793.095 394.812C792.896 394.852 792.578 394.932 792.061 394.932C791.026 394.932 790.032 394.614 790.032 392.625V383.716H793.293V381.727ZM106.642 439.358C109.307 439.358 110.699 437.926 111.176 436.932H111.295V439H113.642V428.938C113.642 424.085 109.943 423.528 107.994 423.528C105.688 423.528 103.062 424.324 101.869 427.108L104.097 427.903C104.614 426.79 105.837 425.597 108.074 425.597C110.232 425.597 111.295 426.74 111.295 428.699V428.778C111.295 429.912 110.142 429.812 107.358 430.17C104.524 430.538 101.432 431.165 101.432 434.665C101.432 437.648 103.739 439.358 106.642 439.358ZM107 437.25C105.131 437.25 103.778 436.415 103.778 434.784C103.778 432.994 105.409 432.438 107.239 432.199C108.233 432.08 110.898 431.801 111.295 431.324V433.472C111.295 435.381 109.784 437.25 107 437.25ZM119.684 429.812C119.684 427.148 121.334 425.636 123.581 425.636C125.759 425.636 127.081 427.058 127.081 429.455V439H129.428V429.295C129.428 425.398 127.35 423.528 124.258 423.528C121.951 423.528 120.519 424.562 119.803 426.114H119.604V423.727H117.337V439H119.684V429.812ZM138.895 439.318C141.838 439.318 142.833 437.489 143.35 436.653H143.628V439H145.895V418.636H143.548V426.153H143.35C142.833 425.358 141.918 423.528 138.935 423.528C135.077 423.528 132.412 426.591 132.412 431.403C132.412 436.256 135.077 439.318 138.895 439.318ZM139.213 437.21C136.27 437.21 134.759 434.625 134.759 431.364C134.759 428.142 136.23 425.636 139.213 425.636C142.077 425.636 143.588 427.943 143.588 431.364C143.588 434.824 142.037 437.21 139.213 437.21ZM164.019 423.727H160.598V422.176C160.598 420.665 161.235 419.869 162.786 419.869C163.462 419.869 163.86 420.028 164.098 420.108L164.774 418.08C164.416 417.92 163.701 417.682 162.547 417.682C160.36 417.682 158.252 418.994 158.252 421.619V423.727H155.786V425.716H158.252V439H160.598V425.716H164.019V423.727ZM172.494 439.318C175.596 439.318 177.863 437.767 178.579 435.46L176.312 434.824C175.716 436.415 174.333 437.21 172.494 437.21C169.74 437.21 167.841 435.43 167.731 432.159H178.818V431.165C178.818 425.477 175.437 423.528 172.255 423.528C168.119 423.528 165.375 426.79 165.375 431.483C165.375 436.176 168.079 439.318 172.494 439.318ZM167.731 430.131C167.89 427.754 169.571 425.636 172.255 425.636C174.801 425.636 176.431 427.545 176.431 430.131H167.731ZM186.294 439.358C188.959 439.358 190.351 437.926 190.828 436.932H190.947V439H193.294V428.938C193.294 424.085 189.595 423.528 187.646 423.528C185.339 423.528 182.714 424.324 181.521 427.108L183.748 427.903C184.265 426.79 185.488 425.597 187.726 425.597C189.883 425.597 190.947 426.74 190.947 428.699V428.778C190.947 429.912 189.794 429.812 187.01 430.17C184.176 430.538 181.084 431.165 181.084 434.665C181.084 437.648 183.39 439.358 186.294 439.358ZM186.652 437.25C184.782 437.25 183.43 436.415 183.43 434.784C183.43 432.994 185.061 432.438 186.89 432.199C187.885 432.08 190.549 431.801 190.947 431.324V433.472C190.947 435.381 189.436 437.25 186.652 437.25ZM203.631 423.727H200.369V420.068H198.023V423.727H195.716V425.716H198.023V435.261C198.023 437.926 200.171 439.199 202.159 439.199C203.034 439.199 203.591 439.04 203.909 438.92L203.432 436.812C203.233 436.852 202.915 436.932 202.398 436.932C201.364 436.932 200.369 436.614 200.369 434.625V425.716H203.631V423.727ZM216.198 432.756C216.198 435.619 214.01 436.932 212.26 436.932C210.311 436.932 208.919 435.5 208.919 433.273V423.727H206.573V433.432C206.573 437.33 208.641 439.199 211.504 439.199C213.811 439.199 215.323 437.966 216.039 436.415H216.198V439H218.544V423.727H216.198V432.756ZM222.254 439H224.601V429.335C224.601 427.267 226.231 425.756 228.459 425.756C229.085 425.756 229.731 425.875 229.891 425.915V423.528C229.622 423.509 229.006 423.489 228.658 423.489C226.828 423.489 225.237 424.523 224.68 426.034H224.521V423.727H222.254V439ZM238.023 439.318C241.125 439.318 243.392 437.767 244.108 435.46L241.841 434.824C241.244 436.415 239.862 437.21 238.023 437.21C235.268 437.21 233.369 435.43 233.26 432.159H244.347V431.165C244.347 425.477 240.966 423.528 237.784 423.528C233.648 423.528 230.903 426.79 230.903 431.483C230.903 436.176 233.608 439.318 238.023 439.318ZM233.26 430.131C233.419 427.754 235.099 425.636 237.784 425.636C240.33 425.636 241.96 427.545 241.96 430.131H233.26ZM258.146 427.148C257.411 424.98 255.76 423.528 252.737 423.528C249.516 423.528 247.129 425.358 247.129 427.943C247.129 430.051 248.382 431.463 251.186 432.119L253.732 432.716C255.273 433.074 255.999 433.81 255.999 434.864C255.999 436.176 254.607 437.25 252.419 437.25C250.5 437.25 249.297 436.425 248.879 434.784L246.652 435.341C247.199 437.936 249.337 439.318 252.459 439.318C256.009 439.318 258.425 437.379 258.425 434.744C258.425 432.616 257.092 431.274 254.368 430.608L252.101 430.051C250.291 429.604 249.476 428.997 249.476 427.824C249.476 426.511 250.868 425.557 252.737 425.557C254.786 425.557 255.631 426.69 256.038 427.744L258.146 427.148ZM274.861 439.318C278.997 439.318 281.781 436.176 281.781 431.443C281.781 426.67 278.997 423.528 274.861 423.528C270.724 423.528 267.94 426.67 267.94 431.443C267.94 436.176 270.724 439.318 274.861 439.318ZM274.861 437.21C271.719 437.21 270.287 434.506 270.287 431.443C270.287 428.381 271.719 425.636 274.861 425.636C278.003 425.636 279.434 428.381 279.434 431.443C279.434 434.506 278.003 437.21 274.861 437.21ZM296.717 423.727H294.171L289.956 435.898H289.796L285.581 423.727H283.035L288.683 439H291.069L296.717 423.727ZM305.083 439.318C308.185 439.318 310.452 437.767 311.168 435.46L308.901 434.824C308.304 436.415 306.922 437.21 305.083 437.21C302.328 437.21 300.429 435.43 300.32 432.159H311.407V431.165C311.407 425.477 308.026 423.528 304.844 423.528C300.708 423.528 297.963 426.79 297.963 431.483C297.963 436.176 300.668 439.318 305.083 439.318ZM300.32 430.131C300.479 427.754 302.159 425.636 304.844 425.636C307.39 425.636 309.02 427.545 309.02 430.131H300.32ZM314.388 439H316.735V429.335C316.735 427.267 318.365 425.756 320.593 425.756C321.219 425.756 321.865 425.875 322.025 425.915V423.528C321.756 423.509 321.14 423.489 320.792 423.489C318.962 423.489 317.371 424.523 316.814 426.034H316.655V423.727H314.388V439ZM337.172 423.727H334.626L330.41 435.898H330.251L326.035 423.727H323.49L329.138 439H331.524L337.172 423.727ZM339.681 439H342.028V423.727H339.681V439ZM340.874 421.182C341.789 421.182 342.545 420.466 342.545 419.591C342.545 418.716 341.789 418 340.874 418C339.959 418 339.204 418.716 339.204 419.591C339.204 420.466 339.959 421.182 340.874 421.182ZM352.141 439.318C355.243 439.318 357.51 437.767 358.226 435.46L355.959 434.824C355.362 436.415 353.98 437.21 352.141 437.21C349.387 437.21 347.487 435.43 347.378 432.159H358.465V431.165C358.465 425.477 355.084 423.528 351.902 423.528C347.766 423.528 345.022 426.79 345.022 431.483C345.022 436.176 347.726 439.318 352.141 439.318ZM347.378 430.131C347.537 427.754 349.218 425.636 351.902 425.636C354.448 425.636 356.078 427.545 356.078 430.131H347.378ZM364.907 439H367.213L370.554 427.267H370.793L374.134 439H376.441L381.094 423.727H378.628L375.327 435.381H375.168L371.946 423.727H369.441L366.179 435.42H366.02L362.719 423.727H360.253L364.907 439ZM385.03 436.216H382.485L382.365 437.33C382.077 440.024 381.51 442.709 381.252 443.972H383.042C383.519 442.619 384.533 439.557 384.871 437.29L385.03 436.216ZM408.566 423.727H406.02L401.804 435.898H401.645L397.429 423.727H394.884L400.531 439H402.918L408.566 423.727ZM411.075 439H413.421V423.727H411.075V439ZM412.268 421.182C413.183 421.182 413.938 420.466 413.938 419.591C413.938 418.716 413.183 418 412.268 418C411.353 418 410.598 418.716 410.598 419.591C410.598 420.466 411.353 421.182 412.268 421.182ZM427.949 427.148C427.214 424.98 425.563 423.528 422.54 423.528C419.319 423.528 416.932 425.358 416.932 427.943C416.932 430.051 418.185 431.463 420.989 432.119L423.535 432.716C425.076 433.074 425.802 433.81 425.802 434.864C425.802 436.176 424.41 437.25 422.222 437.25C420.303 437.25 419.1 436.425 418.682 434.784L416.455 435.341C417.002 437.936 419.14 439.318 422.262 439.318C425.812 439.318 428.228 437.379 428.228 434.744C428.228 432.616 426.896 431.274 424.171 430.608L421.904 430.051C420.094 429.604 419.279 428.997 419.279 427.824C419.279 426.511 420.671 425.557 422.54 425.557C424.589 425.557 425.434 426.69 425.842 427.744L427.949 427.148ZM431.172 439H433.519V423.727H431.172V439ZM432.365 421.182C433.28 421.182 434.036 420.466 434.036 419.591C434.036 418.716 433.28 418 432.365 418C431.451 418 430.695 418.716 430.695 419.591C430.695 420.466 431.451 421.182 432.365 421.182ZM443.871 423.727H440.609V420.068H438.263V423.727H435.956V425.716H438.263V435.261C438.263 437.926 440.411 439.199 442.399 439.199C443.274 439.199 443.831 439.04 444.149 438.92L443.672 436.812C443.473 436.852 443.155 436.932 442.638 436.932C441.604 436.932 440.609 436.614 440.609 434.625V425.716H443.871V423.727ZM660.886 439.159C661.871 439.159 662.676 438.354 662.676 437.369C662.676 436.385 661.871 435.58 660.886 435.58C659.902 435.58 659.097 436.385 659.097 437.369C659.097 438.354 659.902 439.159 660.886 439.159Z" fill="white" fill-opacity="0.8"/>
<path d="M457.878 430.17C457.888 428.202 459.091 427.048 460.821 427.048C462.541 427.048 463.556 428.152 463.546 430.031V439H467.781V429.276C467.791 425.696 465.683 423.528 462.502 423.528C460.185 423.528 458.634 424.622 457.938 426.422H457.759V418.636H453.642V439H457.878V430.17ZM477.487 439.298C481.266 439.298 483.811 437.459 484.408 434.625L480.49 434.366C480.062 435.53 478.969 436.136 477.557 436.136C475.439 436.136 474.096 434.734 474.096 432.457V432.447H484.497V431.284C484.497 426.094 481.355 423.528 477.318 423.528C472.824 423.528 469.91 426.72 469.91 431.433C469.91 436.276 472.784 439.298 477.487 439.298ZM474.096 429.822C474.186 428.082 475.508 426.69 477.388 426.69C479.227 426.69 480.5 428.003 480.51 429.822H474.096ZM490.909 418.636H486.673V439H490.909V418.636ZM493.714 444.727H497.95V436.554H498.079C498.666 437.827 499.949 439.249 502.414 439.249C505.895 439.249 508.609 436.494 508.609 431.384C508.609 426.134 505.775 423.528 502.424 423.528C499.869 423.528 498.646 425.05 498.079 426.293H497.89V423.727H493.714V444.727ZM497.86 431.364C497.86 428.639 499.014 426.899 501.072 426.899C503.17 426.899 504.284 428.719 504.284 431.364C504.284 434.028 503.15 435.878 501.072 435.878C499.034 435.878 497.86 434.088 497.86 431.364ZM513.321 439.259C514.594 439.259 515.697 438.195 515.707 436.872C515.697 435.57 514.594 434.506 513.321 434.506C512.008 434.506 510.924 435.57 510.934 436.872C510.924 438.195 512.008 439.259 513.321 439.259ZM526.81 423.727H523.777V422.703C523.777 421.669 524.195 421.062 525.438 421.062C525.945 421.062 526.462 421.172 526.8 421.281L527.546 418.099C527.019 417.94 525.855 417.682 524.553 417.682C521.679 417.682 519.541 419.303 519.541 422.624V423.727H517.384V426.909H519.541V439H523.777V426.909H526.81V423.727ZM528.81 439H533.045V423.727H528.81V439ZM530.937 421.759C532.2 421.759 533.234 420.794 533.234 419.611C533.234 418.438 532.2 417.473 530.937 417.473C529.685 417.473 528.65 418.438 528.65 419.611C528.65 420.794 529.685 421.759 530.937 421.759ZM542.731 444.946C547.096 444.946 550.198 442.957 550.198 439.149V423.727H545.993V426.293H545.833C545.267 425.05 544.024 423.528 541.468 423.528C538.118 423.528 535.284 426.134 535.284 431.334C535.284 436.415 538.038 438.781 541.478 438.781C543.914 438.781 545.277 437.558 545.833 436.295H546.012V439.089C546.012 441.088 544.67 441.903 542.831 441.903C540.961 441.903 540.017 441.088 539.669 440.263L535.751 440.79C536.258 443.097 538.615 444.946 542.731 444.946ZM542.821 435.599C540.743 435.599 539.609 433.949 539.609 431.314C539.609 428.719 540.723 426.899 542.821 426.899C544.879 426.899 546.032 428.639 546.032 431.314C546.032 434.009 544.859 435.599 542.821 435.599ZM552.981 439H557.217V429.832C557.217 428.142 558.291 427.018 559.703 427.018C561.095 427.018 562.03 427.973 562.03 429.474V439H566.136V429.673C566.136 428.092 567.041 427.018 568.582 427.018C569.934 427.018 570.949 427.864 570.949 429.564V439H575.174V428.729C575.174 425.418 573.206 423.528 570.362 423.528C568.125 423.528 566.385 424.672 565.758 426.422H565.599C565.112 424.652 563.551 423.528 561.453 423.528C559.395 423.528 557.833 424.622 557.197 426.422H557.018V423.727H552.981V439ZM582.287 439.288C584.545 439.288 586.006 438.304 586.752 436.882H586.871V439H590.888V428.699C590.888 425.06 587.806 423.528 584.405 423.528C580.746 423.528 578.34 425.278 577.753 428.062L581.671 428.381C581.959 427.366 582.864 426.621 584.385 426.621C585.827 426.621 586.652 427.347 586.652 428.599V428.659C586.652 429.643 585.608 429.773 582.954 430.031C579.931 430.31 577.216 431.324 577.216 434.734C577.216 437.757 579.374 439.288 582.287 439.288ZM583.5 436.365C582.198 436.365 581.263 435.759 581.263 434.595C581.263 433.402 582.248 432.815 583.739 432.607C584.664 432.477 586.175 432.259 586.682 431.92V433.541C586.682 435.142 585.36 436.365 583.5 436.365ZM596.062 439.259C597.335 439.259 598.439 438.195 598.449 436.872C598.439 435.57 597.335 434.506 596.062 434.506C594.75 434.506 593.666 435.57 593.676 436.872C593.666 438.195 594.75 439.259 596.062 439.259ZM608.239 439.298C612.306 439.298 614.861 436.912 615.06 433.402H611.063C610.814 435.033 609.74 435.947 608.289 435.947C606.31 435.947 605.027 434.287 605.027 431.364C605.027 428.48 606.32 426.83 608.289 426.83C609.84 426.83 610.834 427.854 611.063 429.375H615.06C614.881 425.845 612.206 423.528 608.219 423.528C603.585 423.528 600.722 426.74 600.722 431.423C600.722 436.067 603.536 439.298 608.239 439.298ZM624.085 439.298C628.718 439.298 631.602 436.126 631.602 431.423C631.602 426.69 628.718 423.528 624.085 423.528C619.451 423.528 616.567 426.69 616.567 431.423C616.567 436.126 619.451 439.298 624.085 439.298ZM624.104 436.017C621.967 436.017 620.873 434.058 620.873 431.393C620.873 428.729 621.967 426.76 624.104 426.76C626.202 426.76 627.296 428.729 627.296 431.393C627.296 434.058 626.202 436.017 624.104 436.017ZM633.768 439H638.004V429.832C638.004 428.142 639.077 427.018 640.489 427.018C641.881 427.018 642.816 427.973 642.816 429.474V439H646.923V429.673C646.923 428.092 647.827 427.018 649.369 427.018C650.721 427.018 651.735 427.864 651.735 429.564V439H655.961V428.729C655.961 425.418 653.992 423.528 651.148 423.528C648.911 423.528 647.171 424.672 646.545 426.422H646.386C645.898 424.652 644.337 423.528 642.239 423.528C640.181 423.528 638.62 424.622 637.984 426.422H637.805V423.727H633.768V439Z" fill="white"/>
</g>
</svg>
